<svg width="84" height="25" viewBox="0 0 84 25" fill="none" xmlns="http://www.w3.org/2000/svg">
<rect y="2.38094" width="20.2381" height="20.2381" rx="5.95238" fill="#0ACF83"/>
<mask id="mask0_648_529" style="mask-type:alpha" maskUnits="userSpaceOnUse" x="0" y="2" width="21" height="21">
<rect y="2.38095" width="20.2381" height="20.2381" rx="5.95238" fill="#0ACF83"/>
</mask>
<g mask="url(#mask0_648_529)">
<path d="M13.0689 12.0181C13.4641 13.4929 12.5873 15.0091 11.1105 15.4048C9.63368 15.8005 8.11618 14.9258 7.72103 13.4511C7.32588 11.9764 8.20272 10.4601 9.6795 10.0644C11.1563 9.66869 12.6738 10.5434 13.0689 12.0181Z" fill="white"/>
<path fill-rule="evenodd" clip-rule="evenodd" d="M-0.230604 3.89787C-0.605726 4.27254 -0.605938 4.87978 -0.231077 5.25419L4.47558 9.95516C3.83921 11.3039 3.65884 12.8757 4.0748 14.4281C5.0088 17.9138 8.59562 19.9814 12.0862 19.0461C15.5768 18.1108 17.6493 14.5268 16.7153 11.0411C15.7813 7.55541 12.1945 5.4879 8.70391 6.42319C8.17838 6.56401 7.68499 6.76487 7.22916 7.01638L2.61688 2.40968C2.24202 2.03527 1.63403 2.03548 1.25891 2.41015L-0.230604 3.89787ZM11.3707 16.3759C13.3845 15.8363 14.5802 13.7686 14.0414 11.7577C13.5025 9.74668 11.4332 8.55388 9.41941 9.09347C7.40561 9.63307 6.20993 11.7007 6.74877 13.7117C7.28761 15.7227 9.35693 16.9155 11.3707 16.3759Z" fill="white"/>
</g>
<path d="M27.819 19L32.6952 5.66667H35.4381L40.3143 19H37.7238L36.6571 15.9143H31.4571L30.3714 19H27.819ZM32.1238 14.0095H35.9904L34.0476 8.46667L32.1238 14.0095ZM45.5696 19.2286C44.3887 19.2286 43.4744 18.8603 42.8268 18.1238C42.1918 17.3873 41.8744 16.3079 41.8744 14.8857V9.55238H44.2934V14.6571C44.2934 15.4698 44.4585 16.0921 44.7887 16.5238C45.1188 16.9556 45.6395 17.1714 46.3506 17.1714C47.0236 17.1714 47.576 16.9302 48.0077 16.4476C48.4522 15.9651 48.6744 15.2921 48.6744 14.4286V9.55238H51.1125V19H48.9601L48.7696 17.4C48.4775 17.9587 48.0522 18.4032 47.4934 18.7333C46.9474 19.0635 46.3061 19.2286 45.5696 19.2286ZM58.1962 19.2286C57.3074 19.2286 56.5137 19.0127 55.8153 18.581C55.1169 18.1492 54.5645 17.5587 54.1582 16.8095C53.7518 16.0603 53.5486 15.2095 53.5486 14.2571C53.5486 13.3048 53.7518 12.4603 54.1582 11.7238C54.5645 10.9746 55.1169 10.3905 55.8153 9.97143C56.5137 9.53968 57.3074 9.32381 58.1962 9.32381C58.9074 9.32381 59.5296 9.45714 60.0629 9.72381C60.5962 9.99048 61.028 10.3651 61.3582 10.8476V5.28571H63.7962V19H61.6248L61.3582 17.6476C61.0534 18.0667 60.647 18.4349 60.1391 18.7524C59.6439 19.0698 58.9962 19.2286 58.1962 19.2286ZM58.7105 17.0952C59.4978 17.0952 60.1391 16.8349 60.6343 16.3143C61.1423 15.781 61.3962 15.1016 61.3962 14.2762C61.3962 13.4508 61.1423 12.7778 60.6343 12.2571C60.1391 11.7238 59.4978 11.4571 58.7105 11.4571C57.9359 11.4571 57.2947 11.7175 56.7867 12.2381C56.2788 12.7587 56.0248 13.4317 56.0248 14.2571C56.0248 15.0825 56.2788 15.7619 56.7867 16.2952C57.2947 16.8286 57.9359 17.0952 58.7105 17.0952ZM67.8314 8.08571C67.3869 8.08571 67.0187 7.95238 66.7266 7.68571C66.4472 7.41905 66.3076 7.08254 66.3076 6.67619C66.3076 6.26984 66.4472 5.93968 66.7266 5.68571C67.0187 5.41905 67.3869 5.28571 67.8314 5.28571C68.2758 5.28571 68.6377 5.41905 68.9171 5.68571C69.2091 5.93968 69.3552 6.26984 69.3552 6.67619C69.3552 7.08254 69.2091 7.41905 68.9171 7.68571C68.6377 7.95238 68.2758 8.08571 67.8314 8.08571ZM66.6123 19V9.55238H69.0504V19H66.6123ZM76.3666 19.2286C75.4524 19.2286 74.627 19.019 73.8904 18.6C73.1666 18.181 72.5889 17.6032 72.1571 16.8667C71.7381 16.1175 71.5285 15.254 71.5285 14.2762C71.5285 13.2984 71.7444 12.4413 72.1762 11.7048C72.6079 10.9556 73.1857 10.3714 73.9095 9.95238C74.646 9.53333 75.4714 9.32381 76.3857 9.32381C77.2873 9.32381 78.1 9.53333 78.8238 9.95238C79.5603 10.3714 80.1381 10.9556 80.5571 11.7048C80.9889 12.4413 81.2047 13.2984 81.2047 14.2762C81.2047 15.254 80.9889 16.1175 80.5571 16.8667C80.1381 17.6032 79.5603 18.181 78.8238 18.6C78.0873 19.019 77.2682 19.2286 76.3666 19.2286ZM76.3666 17.1143C77.0016 17.1143 77.5539 16.8794 78.0238 16.4095C78.4936 15.927 78.7285 15.2159 78.7285 14.2762C78.7285 13.3365 78.4936 12.6317 78.0238 12.1619C77.5539 11.6794 77.0079 11.4381 76.3857 11.4381C75.7381 11.4381 75.1793 11.6794 74.7095 12.1619C74.2524 12.6317 74.0238 13.3365 74.0238 14.2762C74.0238 15.2159 74.2524 15.927 74.7095 16.4095C75.1793 16.8794 75.7317 17.1143 76.3666 17.1143Z" fill="black"/>
</svg>
